<svg width="30" height="30" viewBox="0 0 30 30" fill="none" xmlns="http://www.w3.org/2000/svg">
<rect x="5" y="5" width="20" height="20" rx="3" fill="#9B51E0" fill-opacity="0.12"/>
<path d="M17.481 10.4669C18.985 10.4669 20.073 11.3309 20.073 12.5789C20.073 13.8056 18.985 14.6909 17.481 14.6909C15.9877 14.6909 14.8997 13.8056 14.8997 12.5789C14.8997 11.3309 15.9877 10.4669 17.481 10.4669ZM17.481 11.6189C16.7663 11.6189 16.2543 11.9603 16.2543 12.5789C16.2543 13.1869 16.7663 13.5283 17.481 13.5283C18.2063 13.5283 18.7183 13.1869 18.7183 12.5789C18.7183 11.9603 18.2063 11.6189 17.481 11.6189ZM16.8197 15.6723H18.2383V19.6509H16.8197V15.6723ZM21.1397 10.0723H22.5477V19.9496H21.1397V10.0723ZM14.4837 16.4189L14.313 15.2669C16.041 15.2669 18.4837 15.2456 20.5743 14.9256L20.6703 15.9603C18.5263 16.3869 16.1903 16.4083 14.4837 16.4189Z" fill="#333333"/>
<path d="M7.03649 18.9994V17.6509L9.86603 15.1736C10.0782 14.9817 10.2587 14.8062 10.4077 14.6471C10.5567 14.4855 10.6703 14.3239 10.7486 14.1623C10.8269 13.9981 10.866 13.8201 10.866 13.6282C10.866 13.4135 10.8193 13.2304 10.7259 13.0789C10.6324 12.9249 10.5037 12.8062 10.3395 12.7229C10.1754 12.6395 9.98725 12.5979 9.77512 12.5979C9.56048 12.5979 9.37235 12.6421 9.21073 12.7304C9.04911 12.8163 8.92285 12.9413 8.83194 13.1054C8.74356 13.2696 8.69937 13.4691 8.69937 13.7039H6.92285C6.92285 13.1761 7.04154 12.7203 7.27891 12.3365C7.51629 11.9527 7.84962 11.6572 8.27891 11.4501C8.71073 11.2405 9.21199 11.1357 9.7827 11.1357C10.3711 11.1357 10.8824 11.2342 11.3168 11.4312C11.7511 11.6282 12.087 11.9034 12.3244 12.257C12.5643 12.608 12.6842 13.0158 12.6842 13.4804C12.6842 13.7759 12.6249 14.0688 12.5062 14.3592C12.3875 14.6496 12.1741 14.9703 11.866 15.3213C11.5605 15.6724 11.1261 16.0928 10.563 16.5827L9.63497 17.4388V17.488H12.7789V18.9994H7.03649Z" fill="#9B51E0"/>
</svg>
