<svg width="32" height="32" viewBox="0 0 32 32" fill="none" xmlns="http://www.w3.org/2000/svg">
<path d="M8.28225 8.50627C7.82927 8.57523 7.41078 8.74765 7.05968 9.01097C6.89354 9.13479 6.67097 9.34795 6.55342 9.49372C5.7133 10.5486 5.77756 12.0595 6.70545 13.0282C7.15216 13.4937 7.68664 13.7696 8.30889 13.8526C9.15842 13.9655 10.0001 13.6693 10.5973 13.0486C11.0471 12.5831 11.2979 12.0235 11.3496 11.3746C11.4045 10.7053 11.1819 9.99999 10.754 9.47805C10.3402 8.97491 9.79321 8.65047 9.13961 8.52194C8.95622 8.48589 8.47503 8.47649 8.28225 8.50627ZM8.95779 9.94827C9.2023 10.0125 9.36531 10.1066 9.54869 10.2853C9.70543 10.4389 9.79007 10.5752 9.86374 10.7884C9.91233 10.9295 9.91546 10.9451 9.91546 11.1787C9.91546 11.4122 9.91233 11.4279 9.86374 11.569C9.79948 11.7555 9.7117 11.9059 9.58945 12.0345C9.4233 12.2131 9.24619 12.3229 9.00324 12.395C8.88726 12.4295 8.83397 12.4373 8.66939 12.4373C8.31986 12.4389 8.05341 12.3354 7.79792 12.0987C7.47504 11.7978 7.33398 11.3527 7.42488 10.9154C7.5299 10.4075 7.95309 10.0063 8.47347 9.92476C8.59572 9.90595 8.84023 9.91849 8.95779 9.94827ZM8.47033 10.6787C8.42488 10.6959 8.34964 10.7445 8.30419 10.7868C8.07222 10.9984 8.06908 11.3511 8.29635 11.5643C8.41234 11.6724 8.49228 11.7037 8.66155 11.7037C8.83083 11.7037 8.91077 11.6724 9.02675 11.5643C9.25089 11.3558 9.25089 11.0016 9.02675 10.7931C8.92017 10.6943 8.83083 10.6567 8.67723 10.6505C8.57848 10.6473 8.5346 10.652 8.47033 10.6787ZM22.9483 8.5C21.8527 8.64106 20.9436 9.43573 20.6693 10.4953C20.3668 11.6599 20.8668 12.8762 21.9028 13.4984C22.4702 13.8385 23.1724 13.9545 23.8417 13.8182C24.1552 13.7539 24.569 13.5721 24.8448 13.3762C25.0361 13.2414 25.3401 12.9373 25.4749 12.7461C25.6865 12.4498 25.8448 12.0799 25.9279 11.6959C25.9592 11.5517 25.9639 11.4859 25.9639 11.1787C25.9639 10.8715 25.9592 10.8056 25.9279 10.6614C25.8448 10.2774 25.6865 9.90908 25.4749 9.61128C25.3417 9.42162 25.0376 9.11755 24.8448 8.97962C24.5925 8.80094 24.2257 8.63323 23.906 8.55329C23.6568 8.49059 23.2147 8.46552 22.9483 8.5ZM23.5988 9.95611C24.0282 10.0658 24.3621 10.3918 24.4937 10.826C24.5314 10.9498 24.5361 10.9937 24.5361 11.1787C24.5361 11.3636 24.5314 11.4075 24.4937 11.5313C24.3448 12.0235 23.9452 12.3636 23.4342 12.4326C23.0204 12.489 22.5753 12.3135 22.3025 11.9843C22.2101 11.873 22.0831 11.6191 22.0455 11.4686C22.0094 11.3197 22.0094 11.036 22.047 10.8887C22.0784 10.7602 22.1709 10.5533 22.2445 10.4483C22.4122 10.2038 22.7351 9.99216 23.0188 9.942C23.0706 9.9326 23.1301 9.92163 23.1521 9.91849C23.232 9.90438 23.4781 9.92476 23.5988 9.95611ZM23.1176 10.6661C23.0126 10.7069 22.9185 10.7711 22.8637 10.8432C22.6521 11.1207 22.7367 11.4969 23.0455 11.6599C23.1191 11.699 23.1442 11.7037 23.2774 11.7037C23.4546 11.7037 23.5392 11.6693 23.6536 11.5548C23.7696 11.4404 23.8025 11.3558 23.8025 11.1787C23.8025 11.0517 23.7963 11.0172 23.7633 10.9514C23.7147 10.8511 23.6035 10.7414 23.5047 10.6943C23.4075 10.6473 23.2069 10.6332 23.1176 10.6661ZM15.6443 10.0141C14.4342 10.1379 13.3904 10.8668 12.8684 11.9545C12.1803 13.3871 12.5644 15.1081 13.7979 16.1128C14.707 16.8526 15.9452 17.0783 17.0596 16.7069C17.6615 16.5047 18.2085 16.1316 18.6145 15.6457C18.9311 15.2664 19.185 14.768 19.3057 14.2931C19.4029 13.9122 19.4342 13.3777 19.3841 12.9968C19.2853 12.2633 18.964 11.594 18.4577 11.0705C17.8856 10.4765 17.1803 10.1223 16.3809 10.0266C16.2195 10.0063 15.7869 10 15.6443 10.0141ZM7.08633 13.9122C7.08633 13.9122 7.05498 15.116 7.01736 16.5862C6.97191 18.3871 6.95467 19.2962 6.96407 19.3761C6.99699 19.6504 7.11141 19.8746 7.32771 20.0893C7.48445 20.246 7.62708 20.3307 7.83867 20.3981C7.93899 20.4294 7.98758 20.4341 8.17566 20.4326C8.38883 20.4326 8.44682 20.4232 10.1114 20.1316C11.055 19.9655 11.8308 19.8307 11.8308 19.8307C11.8308 19.8307 11.8355 21.6238 11.8355 23.8166C20.1113 23.8165 11.8355 23.8166 20.1113 23.8166C20.1113 21.6238 20.116 19.8307 20.116 19.8307C20.116 19.8307 20.9107 19.9686 21.8746 20.1363C23.7539 20.4639 23.7821 20.467 24.0157 20.4185C24.5141 20.3134 24.9013 19.8996 24.9734 19.3934C24.9875 19.3009 24.9765 18.6959 24.9248 16.6724C24.8887 15.2414 24.8605 14.0345 24.8605 13.989V13.9075L24.6536 14.0078C24.1834 14.2367 23.6865 14.3432 23.1756 14.3244C22.9499 14.315 22.674 14.2774 22.4985 14.2288L22.4154 14.2069V14.3182C22.4154 14.3809 22.4342 15.174 22.4561 16.0815C22.4796 16.989 22.4938 17.7366 22.4875 17.7413C22.4828 17.7461 21.7571 17.6254 20.8762 17.4718L19.2728 17.1943L18.138 17.1959L17.0032 17.199L16.8449 17.2366C16.5408 17.3087 16.3512 17.3291 15.9734 17.3291C15.5941 17.3291 15.3966 17.3087 15.102 17.2382L14.9452 17.199L13.801 17.1975L12.6584 17.1943L11.0785 17.4702C10.2086 17.6222 9.48443 17.7461 9.46719 17.7461C9.44054 17.7461 9.43898 17.7335 9.44681 17.5219C9.45935 17.1896 9.53145 14.2147 9.52675 14.21C9.52675 14.21 9.47503 14.2194 9.4139 14.2351C8.9766 14.3464 8.49384 14.3573 8.0346 14.2649C7.81046 14.2194 7.49228 14.1097 7.27442 14.0031C7.17097 13.9514 7.08633 13.9122 7.08633 13.9122Z" fill="#9B51E0"/>
</svg>
