<svg width="30" height="30" viewBox="0 0 30 30" fill="none" xmlns="http://www.w3.org/2000/svg">
<rect x="5" y="5" width="20" height="20" rx="3" fill="#9B51E0" fill-opacity="0.12"/>
<path d="M10.9748 11.2422V18.9998H9.10355V12.9922H9.05809L7.32324 14.0528V12.4316L9.23612 11.2422H10.9748Z" fill="#9B51E0"/>
<path d="M17.481 10.4669C18.985 10.4669 20.073 11.3309 20.073 12.5789C20.073 13.8056 18.985 14.6909 17.481 14.6909C15.9877 14.6909 14.8997 13.8056 14.8997 12.5789C14.8997 11.3309 15.9877 10.4669 17.481 10.4669ZM17.481 11.6189C16.7663 11.6189 16.2543 11.9603 16.2543 12.5789C16.2543 13.1869 16.7663 13.5283 17.481 13.5283C18.2063 13.5283 18.7183 13.1869 18.7183 12.5789C18.7183 11.9603 18.2063 11.6189 17.481 11.6189ZM16.8197 15.6723H18.2383V19.6509H16.8197V15.6723ZM21.1397 10.0723H22.5477V19.9496H21.1397V10.0723ZM14.4837 16.4189L14.313 15.2669C16.041 15.2669 18.4837 15.2456 20.5743 14.9256L20.6703 15.9603C18.5263 16.3869 16.1903 16.4083 14.4837 16.4189Z" fill="#333333"/>
</svg>
