<svg width="32" height="32" viewBox="0 0 32 32" fill="none" xmlns="http://www.w3.org/2000/svg">
<path d="M11.1963 20.3467V21.0788H11.9289L11.9284 20.3467H11.1963Z" fill="#9B51E0"/>
<path d="M14.1247 14.4902V15.2223H14.8574L14.8568 14.4902H14.1247Z" fill="#9B51E0"/>
<path d="M17.0531 20.3467V21.0788H17.786L17.7852 20.3467H17.0531Z" fill="#9B51E0"/>
<path d="M18.759 10.4629H9.36605C9.16473 10.4629 9 10.6276 9 10.8289V11.9271H17.8203L18.759 10.4629Z" fill="#9B51E0"/>
<path d="M11.1963 17.4189V18.1511H11.9289L11.9284 17.4189H11.1963Z" fill="#9B51E0"/>
<path d="M11.1963 14.4902V15.2223H11.9289L11.9284 14.4902H11.1963Z" fill="#9B51E0"/>
<path d="M14.1247 20.3467V21.0788H14.8574L14.8568 20.3467H14.1247Z" fill="#9B51E0"/>
<path d="M14.1247 17.4189V18.1511H14.8574L14.8568 17.4189H14.1247Z" fill="#9B51E0"/>
<path d="M19.9816 17.4189V18.1511H20.7144L20.7137 17.4189H19.9816Z" fill="#9B51E0"/>
<path d="M19.9816 20.3467V21.0788H20.7144L20.7137 20.3467H19.9816Z" fill="#9B51E0"/>
<path d="M19.9413 15.3972C19.7839 15.6462 19.5386 15.8146 19.2531 15.8804C19.2531 15.8804 18.2392 16.1001 18.2392 16.1001C17.6589 16.2257 17.0581 15.8449 16.9324 15.2618L16.7127 14.2478C16.6505 13.9623 16.7017 13.6695 16.8628 13.4206L17.3509 12.6592H9V22.5426C9 22.7439 9.16473 22.9087 9.36605 22.9087H22.5439C22.7453 22.9087 22.91 22.7439 22.91 22.5426V12.6592H21.6985L19.9413 15.3972ZM12.6605 21.0784C12.6605 21.482 12.3322 21.8105 11.9284 21.8105H11.1963C10.7925 21.8105 10.4642 21.482 10.4642 21.0784V20.3463C10.4642 19.9427 10.7925 19.6142 11.1963 19.6142H11.9284C12.3322 19.6142 12.6605 19.9427 12.6605 20.3463V21.0784ZM12.6605 18.15C12.6605 18.5536 12.3322 18.8821 11.9284 18.8821H11.1963C10.7925 18.8821 10.4642 18.5536 10.4642 18.15V17.4179C10.4642 17.0143 10.7925 16.6858 11.1963 16.6858H11.9284C12.3322 16.6858 12.6605 17.0143 12.6605 17.4179V18.15ZM12.6605 15.2215C12.6605 15.6253 12.3322 15.9537 11.9284 15.9537H11.1963C10.7925 15.9537 10.4642 15.6253 10.4642 15.2215V14.4894C10.4642 14.0857 10.7925 13.7573 11.1963 13.7573H11.9284C12.3322 13.7573 12.6605 14.0857 12.6605 14.4894V15.2215ZM15.5889 21.0784C15.5889 21.482 15.2606 21.8105 14.8568 21.8105H14.1247C13.721 21.8105 13.3926 21.482 13.3926 21.0784V20.3463C13.3926 19.9427 13.721 19.6142 14.1247 19.6142H14.8568C15.2606 19.6142 15.5889 19.9427 15.5889 20.3463V21.0784ZM15.5889 18.15C15.5889 18.5536 15.2606 18.8821 14.8568 18.8821H14.1247C13.721 18.8821 13.3926 18.5536 13.3926 18.15V17.4179C13.3926 17.0143 13.721 16.6858 14.1247 16.6858H14.8568C15.2606 16.6858 15.5889 17.0143 15.5889 17.4179V18.15ZM15.5889 15.2215C15.5889 15.6253 15.2606 15.9537 14.8568 15.9537H14.1247C13.721 15.9537 13.3926 15.6253 13.3926 15.2215V14.4894C13.3926 14.0857 13.721 13.7573 14.1247 13.7573H14.8568C15.2606 13.7573 15.5889 14.0857 15.5889 14.4894V15.2215ZM18.5174 21.0784C18.5174 21.482 18.1889 21.8105 17.7853 21.8105H17.0532C16.6496 21.8105 16.3211 21.482 16.3211 21.0784V20.3463C16.3211 19.9427 16.6496 19.6142 17.0532 19.6142H17.7853C18.1889 19.6142 18.5174 19.9427 18.5174 20.3463V21.0784ZM18.5174 18.15C18.5174 18.5536 18.1889 18.8821 17.7853 18.8821H17.0532C16.6496 18.8821 16.3211 18.5536 16.3211 18.15V17.4179C16.3211 17.0143 16.6496 16.6858 17.0532 16.6858H17.7853C18.1889 16.6858 18.5174 17.0143 18.5174 17.4179V18.15ZM21.4458 21.0784C21.4458 21.482 21.1173 21.8105 20.7137 21.8105H19.9816C19.578 21.8105 19.2495 21.482 19.2495 21.0784V20.3463C19.2495 19.9427 19.578 19.6142 19.9816 19.6142H20.7137C21.1173 19.6142 21.4458 19.9427 21.4458 20.3463V21.0784ZM21.4458 18.15C21.4458 18.5536 21.1173 18.8821 20.7137 18.8821H19.9816C19.578 18.8821 19.2495 18.5536 19.2495 18.15V17.4179C19.2495 17.0143 19.578 16.6858 19.9816 16.6858H20.7137C21.1173 16.6858 21.4458 17.0143 21.4458 17.4179V18.15Z" fill="#9B51E0"/>
<path d="M17.0531 17.4189V18.1511H17.786L17.7852 17.4189H17.0531Z" fill="#9B51E0"/>
<path d="M22.8917 10.7178C22.8441 10.8459 22.7819 10.9704 22.7087 11.0875L22.1683 11.9294H22.91V10.8312C22.91 10.791 22.9027 10.7544 22.8917 10.7178Z" fill="#9B51E0"/>
<path d="M22.0928 10.6907C22.4164 10.1862 22.2651 9.49625 21.7615 9.17338C21.2521 8.84683 20.5711 8.995 20.244 9.50476L19.987 9.90535L21.8149 11.124C21.8149 11.124 22.0927 10.6909 22.0928 10.6907Z" fill="#9B51E0"/>
<path d="M17.4278 14.094C17.4278 14.094 17.6485 15.1044 17.6488 15.1055C17.6911 15.2991 17.8905 15.4274 18.0842 15.385L19.0958 15.1641C19.1909 15.1433 19.2735 15.0858 19.326 15.0041L21.4196 11.7401L19.5917 10.5215L17.4772 13.8182C17.4246 13.8999 17.4071 13.9991 17.4278 14.094Z" fill="#9B51E0"/>
</svg>
