<svg width="32" height="32" viewBox="0 0 32 32" fill="none" xmlns="http://www.w3.org/2000/svg">
<path d="M20.5626 20.4492C19.4362 21.4109 18.0249 22.0432 16.4754 22.2034L17.495 24.6478C17.6197 24.9505 18.0249 25.0173 18.243 24.7635L19.3961 23.4278L21.1593 23.548C21.4887 23.5703 21.7292 23.2364 21.6 22.9336L20.5626 20.4492Z" fill="#9B51E0"/>
<path d="M9.75688 22.9336C9.62775 23.2364 9.86819 23.5703 10.1977 23.548L11.9608 23.4278L13.1139 24.7635C13.3321 25.0173 13.7372 24.9505 13.8619 24.6478L14.8815 22.2034C13.3321 22.0432 11.9207 21.4109 10.7943 20.4492L9.75688 22.9336Z" fill="#9B51E0"/>
<path d="M15.6785 12.0068C14.2054 12.0068 13.0071 13.2051 13.0071 14.6782C13.0071 16.1513 14.2054 17.3496 15.6785 17.3496C17.1516 17.3496 18.3498 16.1513 18.3498 14.6782C18.3498 13.2051 17.1516 12.0068 15.6785 12.0068ZM16.8837 14.3993L15.6965 15.5867C15.613 15.6702 15.4998 15.7172 15.3817 15.7172C15.2637 15.7172 15.1504 15.6702 15.0669 15.5867L14.4732 14.993C14.2993 14.8191 14.2993 14.5373 14.4732 14.3634C14.6471 14.1895 14.9289 14.1895 15.1028 14.3634L15.3817 14.6424L16.2541 13.7697C16.4281 13.5958 16.7098 13.5958 16.8837 13.7697C17.0576 13.9434 17.0576 14.2254 16.8837 14.3993Z" fill="#9B51E0"/>
<path d="M22.3569 14.6785C22.3569 10.996 19.361 8 15.6785 8C11.996 8 9 10.996 9 14.6785C9 18.361 11.996 21.3569 15.6785 21.3569C19.361 21.3569 22.3569 18.361 22.3569 14.6785ZM21.2438 14.6785C21.2438 14.9243 21.0445 15.1237 20.7986 15.1237C20.5527 15.1237 20.3534 14.9243 20.3534 14.6785C20.3534 14.4326 20.5527 14.2332 20.7986 14.2332C21.0445 14.2332 21.2438 14.4326 21.2438 14.6785ZM19.89 11.7328C20.103 11.6098 20.3753 11.6828 20.4982 11.8958C20.6212 12.1087 20.5482 12.381 20.3353 12.504C20.1223 12.6269 19.85 12.5539 19.7271 12.341C19.6041 12.128 19.6771 11.8557 19.89 11.7328ZM17.853 10.0217C17.9759 9.8087 18.2482 9.73573 18.4612 9.8587C18.6741 9.98164 18.7471 10.2539 18.6241 10.4669C18.5012 10.6798 18.2289 10.7528 18.0159 10.6299C17.803 10.5069 17.73 10.2346 17.853 10.0217ZM15.6785 9.11308C15.9244 9.11308 16.1237 9.3124 16.1237 9.55831C16.1237 9.80418 15.9244 10.0035 15.6785 10.0035C15.4326 10.0035 15.2332 9.80418 15.2332 9.55831C15.2332 9.3124 15.4326 9.11308 15.6785 9.11308ZM12.8958 9.8587C13.1087 9.73573 13.381 9.8087 13.504 10.0217C13.6269 10.2346 13.5539 10.5069 13.341 10.6299C13.1281 10.7528 12.8557 10.6798 12.7328 10.4669C12.6099 10.2539 12.6828 9.98164 12.8958 9.8587ZM10.1131 14.6785C10.1131 14.4326 10.3124 14.2332 10.5583 14.2332C10.8042 14.2332 11.0035 14.4326 11.0035 14.6785C11.0035 14.9243 10.8042 15.1237 10.5583 15.1237C10.3124 15.1237 10.1131 14.9243 10.1131 14.6785ZM11.4669 17.6241C11.254 17.7471 10.9816 17.6741 10.8587 17.4612C10.7358 17.2482 10.8087 16.9759 11.0217 16.853C11.2346 16.73 11.5069 16.803 11.6299 17.0159C11.7528 17.2289 11.6798 17.5012 11.4669 17.6241ZM11.6299 12.341C11.5069 12.5539 11.2346 12.6269 11.0217 12.504C10.8087 12.381 10.7358 12.1087 10.8587 11.8958C10.9816 11.6828 11.254 11.6098 11.4669 11.7328C11.6798 11.8557 11.7528 12.128 11.6299 12.341ZM13.504 19.3353C13.381 19.5482 13.1087 19.6212 12.8958 19.4982C12.6828 19.3753 12.6099 19.103 12.7328 18.89C12.8557 18.6771 13.1281 18.6041 13.341 18.7271C13.5539 18.85 13.6269 19.1223 13.504 19.3353ZM15.6785 20.2438C15.4326 20.2438 15.2332 20.0445 15.2332 19.7986C15.2332 19.5527 15.4326 19.3534 15.6785 19.3534C15.9244 19.3534 16.1237 19.5527 16.1237 19.7986C16.1237 20.0445 15.9244 20.2438 15.6785 20.2438ZM18.4612 19.4982C18.2482 19.6212 17.9759 19.5482 17.853 19.3353C17.73 19.1223 17.803 18.85 18.0159 18.7271C18.2289 18.6041 18.5012 18.6771 18.6241 18.89C18.7471 19.103 18.6741 19.3753 18.4612 19.4982ZM15.6785 18.2403C13.7145 18.2403 12.1166 16.6424 12.1166 14.6785C12.1166 12.7145 13.7145 11.1166 15.6785 11.1166C17.6424 11.1166 19.2403 12.7145 19.2403 14.6785C19.2403 16.6424 17.6424 18.2403 15.6785 18.2403ZM19.89 17.6241C19.6771 17.5012 19.6041 17.2289 19.7271 17.0159C19.85 16.803 20.1223 16.73 20.3353 16.853C20.5482 16.9759 20.6212 17.2482 20.4982 17.4612C20.3753 17.6741 20.103 17.7471 19.89 17.6241Z" fill="#9B51E0"/>
</svg>
