<svg width="30" height="30" viewBox="0 0 30 30" fill="none" xmlns="http://www.w3.org/2000/svg">
<rect x="5" y="5" width="20" height="20" rx="3" fill="#9B51E0" fill-opacity="0.12"/>
<path d="M17.481 10.4669C18.985 10.4669 20.073 11.3309 20.073 12.5789C20.073 13.8056 18.985 14.6909 17.481 14.6909C15.9877 14.6909 14.8997 13.8056 14.8997 12.5789C14.8997 11.3309 15.9877 10.4669 17.481 10.4669ZM17.481 11.6189C16.7663 11.6189 16.2543 11.9603 16.2543 12.5789C16.2543 13.1869 16.7663 13.5283 17.481 13.5283C18.2063 13.5283 18.7183 13.1869 18.7183 12.5789C18.7183 11.9603 18.2063 11.6189 17.481 11.6189ZM16.8197 15.6723H18.2383V19.6509H16.8197V15.6723ZM21.1397 10.0723H22.5477V19.9496H21.1397V10.0723ZM14.4837 16.4189L14.313 15.2669C16.041 15.2669 18.4837 15.2456 20.5743 14.9256L20.6703 15.9603C18.5263 16.3869 16.1903 16.4083 14.4837 16.4189Z" fill="#333333"/>
<path d="M9.67473 19.1054C9.08382 19.1054 8.55983 19.0044 8.10276 18.8024C7.64821 18.5979 7.28963 18.3163 7.027 17.9577C6.76438 17.5991 6.63054 17.1862 6.62549 16.7191H8.51185C8.51943 16.8883 8.57372 17.0385 8.67473 17.1698C8.77574 17.2986 8.91337 17.3996 9.08761 17.4729C9.26185 17.5461 9.46008 17.5827 9.68231 17.5827C9.90453 17.5827 10.1002 17.5436 10.2694 17.4653C10.4411 17.3845 10.575 17.2746 10.6709 17.1357C10.7669 16.9943 10.8136 16.8327 10.8111 16.6509C10.8136 16.4691 10.7619 16.3075 10.6558 16.166C10.5497 16.0246 10.3995 15.9148 10.205 15.8365C10.0131 15.7582 9.78584 15.7191 9.52321 15.7191H8.76943V14.3857H9.52321C9.75301 14.3857 9.95503 14.3479 10.1293 14.2721C10.306 14.1963 10.4437 14.0903 10.5422 13.9539C10.6406 13.815 10.6886 13.6559 10.6861 13.4767C10.6886 13.3024 10.647 13.1496 10.5611 13.0183C10.4778 12.8845 10.3603 12.7809 10.2088 12.7077C10.0598 12.6345 9.88685 12.5979 9.68988 12.5979C9.48281 12.5979 9.29468 12.6345 9.12549 12.7077C8.95882 12.7809 8.82625 12.8845 8.72776 13.0183C8.62928 13.1522 8.57751 13.3075 8.57246 13.4842H6.78079C6.78584 13.0221 6.91463 12.6155 7.16715 12.2645C7.41968 11.911 7.76311 11.6345 8.19746 11.435C8.63433 11.2355 9.1318 11.1357 9.68988 11.1357C10.2454 11.1357 10.7341 11.233 11.1558 11.4274C11.5775 11.6219 11.9058 11.887 12.1406 12.2229C12.3755 12.5562 12.4929 12.9337 12.4929 13.3554C12.4954 13.7923 12.3528 14.1522 12.0649 14.435C11.7795 14.7178 11.4121 14.8921 10.9626 14.9577V15.0183C11.5636 15.089 12.0169 15.2835 12.3225 15.6017C12.6305 15.9198 12.7833 16.3176 12.7808 16.7948C12.7808 17.2443 12.6482 17.6433 12.3831 17.9918C12.1204 18.3378 11.7543 18.6105 11.2846 18.81C10.8174 19.007 10.2808 19.1054 9.67473 19.1054Z" fill="#9B51E0"/>
</svg>
