<svg width="32" height="32" viewBox="0 0 32 32" fill="none" xmlns="http://www.w3.org/2000/svg">
<path d="M17.6896 13.0435V11.5652C17.6896 11.2153 17.406 10.9316 17.056 10.9316C16.7061 10.9316 16.4224 11.2153 16.4224 11.5652V13.1214C16.5553 13.074 16.6962 13.0434 16.8452 13.0434L17.6896 13.0435Z" fill="#9B51E0"/>
<path d="M19.8016 11.5652C19.8016 11.2153 19.5179 10.9316 19.168 10.9316C18.8181 10.9316 18.5344 11.2153 18.5344 11.5652V13.0435L19.8016 13.0436V11.5652Z" fill="#9B51E0"/>
<path d="M18.9568 13.8877H16.8448C16.6125 13.8877 16.4224 14.0778 16.4224 14.3101C16.4224 14.7747 16.8026 15.1549 17.2672 15.1549H18.112C18.3443 15.1549 18.5344 15.345 18.5344 15.5773C18.5344 15.8096 18.3443 15.9997 18.112 15.9997C17.7614 15.9997 17.4784 16.2827 17.4784 16.6333V16.8445C17.4784 17.0768 17.2883 17.2669 17.056 17.2669C16.8237 17.2669 16.6336 17.0768 16.6336 16.8445V16.6333C16.6336 16.3798 16.697 16.1433 16.8068 15.9363C16.245 15.7758 15.8057 15.3281 15.6452 14.7663C15.4382 14.8761 15.1974 14.9437 14.944 14.9437C14.5807 14.9437 14.247 14.8128 13.9894 14.5889C13.7233 14.9352 13.3009 15.1549 12.832 15.1549C12.4772 15.1549 12.1477 15.0282 11.8943 14.817C11.8225 15.1507 11.776 15.552 11.776 15.9997C11.776 17.1655 12.4054 18.3018 12.6208 18.6566V22.7581C12.6208 22.9904 12.8109 23.1805 13.0432 23.1805H18.9568C19.1891 23.1805 19.3792 22.9904 19.3792 22.7581V18.6988C19.7213 18.3102 20.6464 17.1106 20.6464 15.5773C20.6464 14.6438 19.8903 13.8877 18.9568 13.8877Z" fill="#9B51E0"/>
<path d="M12.832 14.3103C13.182 14.3103 13.4656 14.0266 13.4656 13.6767V11.9871C13.4656 11.6372 13.182 11.3535 12.832 11.3535C12.4821 11.3535 12.1984 11.6372 12.1984 11.9871V13.6767C12.1984 14.0266 12.4821 14.3103 12.832 14.3103Z" fill="#9B51E0"/>
<path d="M14.944 14.0994C15.294 14.0994 15.5776 13.8157 15.5776 13.4658V11.7762C15.5776 11.4262 15.294 11.1426 14.944 11.1426C14.5941 11.1426 14.3104 11.4262 14.3104 11.7762V13.4658C14.3104 13.8157 14.5941 14.0994 14.944 14.0994Z" fill="#9B51E0"/>
<path d="M23.8144 8.81934H22.9696C22.6197 8.81934 22.336 9.10301 22.336 9.45294V17.4785C22.336 17.8285 22.6197 18.1121 22.9696 18.1121H23.8144C24.1643 18.1121 24.448 17.8285 24.448 17.4785V9.45294C24.448 9.10301 24.1643 8.81934 23.8144 8.81934Z" fill="#9B51E0"/>
<path d="M25.9264 10.5088H25.2928V16.4224H25.9264C26.2763 16.4224 26.56 16.1387 26.56 15.7888V11.1424C26.56 10.7925 26.2763 10.5088 25.9264 10.5088Z" fill="#9B51E0"/>
<path d="M9.0304 8.81934H8.1856C7.83567 8.81934 7.552 9.10301 7.552 9.45294V17.4785C7.552 17.8285 7.83567 18.1121 8.1856 18.1121H9.0304C9.38033 18.1121 9.664 17.8285 9.664 17.4785V9.45294C9.664 9.10301 9.38033 8.81934 9.0304 8.81934Z" fill="#9B51E0"/>
<path d="M5.44 11.1424V15.7888C5.44 16.1387 5.72367 16.4224 6.0736 16.4224H6.7072V10.5088H6.0736C5.72367 10.5088 5.44 10.7925 5.44 11.1424Z" fill="#9B51E0"/>
<path d="M10.5088 14.7326H11.0832C11.1762 14.2638 11.2944 13.8034 11.3536 13.3176V12.1982H10.5088V14.7326Z" fill="#9B51E0"/>
<path d="M20.6464 13.6935C20.959 13.9723 21.1997 14.3314 21.3434 14.7326H21.4912V12.1982H20.6464V13.6935Z" fill="#9B51E0"/>
</svg>
